# xmcd CD database file
#
# Track frame offsets:
#	180
#	15031
#	27782
#	41036
#	52745
#	69397
#	81066
#	92071
#	105701
#	119265
#	130138
#	142730
#
# Disc length: 2079 seconds
#
# Revision: 0
# Processed by: cddbd v1.5.2PL0 Copyright (c) Steve Scherf et al.
# Submitted via: CDex 1.51
#
DISCID=87081d0c
DTITLE=Jan Cooper - State Of Mind
DYEAR=1900
DGENRE=Country
TTITLE0=Jan Cooper - How Far Can Your Memory Go
TTITLE1=Jan Cooper - Half As Much
TTITLE2=Jan Cooper - Lasso Your Love
TTITLE3=Jan Cooper - The One You Used To Love
TTITLE4=Jan Cooper - I Do Believe
TTITLE5=Jan Cooper - You Were The One
TTITLE6=Jan Cooper - Steal Me A Heart
TTITLE7=Jan Cooper - Runnin' On Love
TTITLE8=Jan Cooper - I'm Crazy
TTITLE9=Jan Cooper - I Know This Is Love
TTITLE10=Jan Cooper - Who Did This To You
TTITLE11=Jan Cooper - Good As Gold
EXTD=
EXTT0=
EXTT1=
EXTT2=
EXTT3=
EXTT4=
EXTT5=
EXTT6=
EXTT7=
EXTT8=
EXTT9=
EXTT10=
EXTT11=
PLAYORDER=
